<svg version="1.1" id="Layer_1" xmlns="http://www.w3.org/2000/svg" xmlns:xlink="http://www.w3.org/1999/xlink" x="0px" y="0px"
	 width="100%" viewBox="0 0 512 512" enable-background="new 0 0 512 512" xml:space="preserve">
<path fill="#000000" opacity="1.000000" stroke="none" 
	d="
M205.468658,513.000000 
	C199.514587,510.085968 193.398193,511.158569 187.596237,510.426971 
	C165.558929,507.648132 143.394272,505.531647 123.235580,495.054810 
	C118.504791,492.596130 114.065659,489.576019 112.084129,484.172516 
	C109.706772,477.689667 112.214760,470.334808 118.237961,465.754272 
	C127.219917,458.923645 137.830490,456.177979 148.510773,453.687622 
	C161.260574,450.714722 174.156342,448.571228 187.230133,447.605347 
	C191.317093,447.303436 193.007401,445.773376 191.776169,441.178741 
	C189.479904,432.609711 186.322983,424.508575 181.485275,417.062714 
	C180.155136,415.015472 178.148178,413.785248 176.183975,412.612183 
	C147.241882,395.327454 123.664062,372.272064 103.316612,345.608307 
	C80.510460,315.722595 64.483398,282.368225 52.791542,246.880981 
	C44.230347,220.895950 38.118019,194.297318 35.478783,166.968307 
	C35.160679,163.674377 34.633823,160.406693 34.648670,157.079987 
	C34.684784,148.987625 35.945927,146.765610 43.830265,144.503250 
	C57.529236,140.572433 70.030991,134.105865 82.453178,127.367096 
	C84.579689,126.213516 85.862869,124.892586 85.655746,122.336967 
	C84.330055,105.979546 96.164391,91.846054 117.735268,94.846558 
	C120.695068,95.258270 122.483284,94.512970 124.223366,92.530388 
	C139.665268,74.936516 153.008926,55.856319 161.405273,33.959858 
	C165.669937,22.838213 172.862122,16.044724 183.378799,11.846859 
	C195.618301,6.961295 208.323700,3.997721 221.410187,2.571877 
	C222.169205,2.489177 222.877823,1.943818 223.804947,1.306887 
	C245.354233,1.000000 266.708466,1.000000 288.531342,1.000000 
	C294.207733,3.916023 300.187195,3.265983 305.756927,4.554559 
	C316.454010,7.029346 327.018677,9.752405 336.801849,14.889984 
	C344.004974,18.672653 348.714386,24.299208 351.739929,32.075760 
	C358.702332,49.971172 368.607178,66.285286 380.571045,81.321289 
	C383.662140,85.206131 386.793274,89.060860 389.985077,92.863029 
	C391.534912,94.709229 393.169739,95.393333 396.012634,94.938324 
	C410.306366,92.650627 421.290466,98.092049 426.194977,109.458328 
	C427.854370,113.303986 428.569275,117.418579 428.308838,121.609673 
	C428.131073,124.470284 429.232056,126.098648 431.777679,127.510567 
	C443.997772,134.288376 456.407776,140.553177 469.895935,144.506485 
	C480.919769,147.737534 480.252533,151.340927 479.060852,163.314194 
	C477.392365,180.078278 474.602234,196.738159 470.633820,213.191360 
	C465.530304,234.350723 459.211639,255.105255 450.779388,275.148071 
	C440.386139,299.852173 427.754913,323.384247 411.485565,344.779633 
	C391.009674,371.706970 367.217773,395.102478 337.929443,412.486664 
	C329.962402,417.215515 327.820557,425.701538 324.509247,433.386322 
	C323.407379,435.943604 323.263092,438.904175 322.238342,441.506042 
	C320.297577,446.433807 323.250000,447.312469 326.963531,447.615326 
	C343.013000,448.924164 358.851990,451.562256 374.330750,455.944550 
	C381.139496,457.872192 387.669250,460.568970 393.838226,464.452820 
	C406.528778,472.442596 406.058380,486.976593 391.099426,494.937164 
	C377.996063,501.910187 363.760468,504.873871 349.353729,507.358704 
	C337.267334,509.443390 325.091888,510.718781 312.852966,511.462952 
	C311.744537,511.530334 310.670105,512.156128 309.289917,512.761292 
	C274.645782,513.000000 240.291550,513.000000 205.468658,513.000000 
M386.699371,177.541611 
	C381.059998,180.622833 374.686798,180.546692 368.659393,181.566528 
	C368.565704,181.906387 368.488098,182.065765 368.481812,182.227905 
	C367.703522,202.372452 349.785492,217.558060 329.129669,214.624969 
	C326.497101,214.251160 325.746063,215.303787 325.271423,217.772354 
	C323.011902,229.523773 316.603455,238.608459 306.129150,244.257095 
	C288.710785,253.650589 271.569489,250.088165 256.725830,235.993744 
	C255.512283,238.070694 253.359879,239.041031 251.592957,240.500687 
	C229.101227,259.080994 194.304321,246.843353 188.792633,218.289688 
	C188.151276,214.967056 187.249741,214.356491 183.935425,214.871292 
	C176.326035,216.053284 169.034790,214.244888 162.475067,210.359238 
	C151.544678,203.884598 146.085175,193.916016 145.328812,181.439713 
	C138.812378,180.776154 132.495667,180.457504 126.860329,177.309189 
	C116.307274,171.413467 111.630951,161.998856 111.097855,150.270798 
	C111.017151,148.495270 111.159386,147.224854 109.032562,146.425247 
	C99.965363,143.016327 91.170830,141.470749 83.145821,148.842194 
	C82.910889,149.057999 82.544785,149.124420 82.256905,149.290131 
	C73.338692,154.423584 63.735081,158.027817 54.026878,161.498566 
	C54.605255,170.122742 55.824345,178.270279 57.213703,186.427902 
	C62.929325,219.987274 72.946243,252.225128 87.578377,282.905884 
	C97.376877,303.451447 109.222610,322.824829 123.626923,340.624725 
	C135.362396,355.126648 148.410950,368.220062 162.868042,379.905701 
	C183.704742,396.748047 206.886978,409.495728 232.080917,418.604858 
	C245.641647,423.507935 259.390442,424.935089 273.486206,421.160461 
	C284.769196,418.139069 295.466614,413.548340 305.899231,408.455811 
	C332.691254,395.377625 356.176666,377.917603 376.780121,356.189117 
	C395.959564,335.962433 411.051697,313.145721 423.655457,288.532013 
	C438.121704,260.281097 447.968658,230.368042 454.442413,199.351578 
	C457.039978,186.906601 459.333862,174.373032 459.836426,161.635208 
	C458.817413,161.133484 458.109711,160.670456 457.333405,160.419952 
	C444.787781,156.371597 433.014038,150.655533 421.798126,143.792206 
	C419.300446,142.263809 417.246613,141.759445 414.633484,143.532852 
	C412.303467,145.114120 409.560852,146.102264 406.711029,146.300598 
	C403.939423,146.493454 402.922546,147.228882 402.803680,150.495499 
	C402.386139,161.967773 397.685883,171.288971 386.699371,177.541611 
M212.514404,167.093903 
	C213.483002,171.336792 215.528854,173.292023 220.253830,171.686417 
	C227.193939,169.328049 233.960602,171.387711 240.638992,173.350647 
	C247.162476,175.268066 252.095367,179.718292 257.123383,184.519989 
	C265.230286,175.006226 275.581543,169.852402 287.175751,171.053421 
	C296.113312,171.979294 300.154419,170.473801 304.423615,161.944321 
	C310.364746,150.074463 321.735901,144.387833 335.596680,145.691055 
	C339.841095,146.090149 342.136292,144.931656 343.442780,140.416641 
	C347.032837,128.009964 357.934662,120.045082 370.827393,119.639328 
	C372.757324,119.578606 375.300323,120.117142 375.544312,117.276596 
	C375.848053,113.740234 379.982788,110.452042 376.565887,106.702301 
	C366.812561,95.998871 358.331818,84.344719 350.678741,72.089699 
	C346.937256,66.098320 343.582245,59.865578 340.572723,54.644882 
	C284.530670,75.836334 229.334976,75.635399 173.391098,54.787876 
	C170.688446,59.509922 167.653687,65.206055 164.252975,70.674606 
	C156.360336,83.366447 147.718155,95.533905 137.603607,106.572960 
	C133.974701,110.533569 138.138748,113.595032 138.421509,117.083817 
	C138.678101,120.249725 141.434280,119.570847 143.496658,119.638115 
	C156.084305,120.048668 166.899185,127.991028 170.470810,140.284241 
	C171.753113,144.697815 173.758621,146.390701 178.131271,145.686615 
	C179.267868,145.503586 180.459015,145.659134 181.625107,145.659576 
	C195.138138,145.664703 207.306870,153.912735 212.514404,167.093903 
M357.945221,486.335480 
	C365.300659,484.148346 373.135010,483.385529 380.167725,479.250763 
	C379.481018,478.601959 379.192932,478.164032 378.788971,477.978455 
	C377.436401,477.357117 376.059631,476.778748 374.661591,476.267456 
	C360.084106,470.936401 344.877319,468.820984 329.545746,467.082947 
	C320.971313,466.110931 320.561279,466.143768 322.455292,474.196136 
	C322.531464,474.519897 322.626953,474.839142 322.704010,475.162750 
	C324.215698,481.508911 321.910553,486.337158 316.569427,488.014832 
	C311.415741,489.633636 306.429321,486.669128 304.629150,480.516022 
	C301.177307,468.717377 300.719879,456.682281 302.444702,444.554291 
	C303.104675,439.913788 303.971741,435.302765 304.977325,429.284637 
	C272.704712,446.616577 241.015961,446.072845 208.753571,429.529633 
	C209.296768,432.347626 209.473984,433.482574 209.736694,434.597382 
	C213.332596,449.856171 213.735962,465.111298 209.408554,480.289246 
	C207.653931,486.443451 202.774139,489.502136 197.621185,488.099792 
	C192.303574,486.652649 189.851715,481.620605 191.161423,475.356262 
	C191.754654,472.518860 193.421570,469.753937 192.031693,466.152435 
	C172.334793,468.355316 152.568909,470.281097 133.207718,478.803253 
	C135.172409,479.881104 136.115784,480.557465 137.165878,480.943542 
	C139.807465,481.914703 142.456192,482.911713 145.174026,483.623444 
	C174.676514,491.349457 204.839478,493.873657 235.181198,494.580292 
	C251.827789,494.967926 268.492310,494.778473 285.145752,494.589172 
	C292.267334,494.508240 299.431702,494.073181 306.496796,493.420624 
	C323.452393,491.854584 340.427094,490.140411 357.945221,486.335480 
M214.554504,47.668777 
	C221.098724,48.586288 227.617874,49.815712 234.193359,50.344521 
	C242.951355,51.048847 251.845749,52.161617 260.508942,51.320690 
	C268.434601,50.551350 276.372833,50.824100 284.307709,49.864906 
	C298.377869,48.164051 312.092316,45.579651 325.109863,39.878822 
	C327.619080,38.779953 331.383728,37.908367 331.232391,34.939587 
	C331.087921,32.105225 327.227478,31.503458 324.768982,30.295771 
	C308.945435,22.522766 291.704285,20.580446 274.573212,19.635698 
	C257.199951,18.677597 239.690872,18.640224 222.334518,21.311464 
	C210.170410,23.183586 198.227524,25.738195 187.030502,31.028494 
	C185.143585,31.920006 182.618973,32.676937 182.607880,35.188160 
	C182.597397,37.567883 185.181854,37.935265 186.849960,38.910439 
	C195.162262,43.769764 204.479446,45.544285 214.554504,47.668777 
M292.061707,229.665161 
	C293.848633,228.800507 295.735992,228.095276 297.405457,227.044067 
	C305.359894,222.035339 310.063171,212.519562 305.317505,201.674362 
	C302.332306,194.852234 292.748566,187.359131 281.872864,190.361542 
	C272.054047,193.072174 264.394745,204.616470 266.817932,213.560272 
	C270.101013,225.677673 280.510193,232.604187 292.061707,229.665161 
M221.945618,190.442078 
	C220.569305,190.992233 219.142151,191.442062 217.825119,192.109253 
	C210.555878,195.791687 204.741913,205.752991 207.533783,215.077209 
	C210.057312,223.505264 219.158890,231.223846 227.246552,230.538559 
	C235.684464,229.823608 242.128571,225.832977 245.787354,217.625275 
	C249.306625,209.730560 247.412827,202.869186 242.230835,196.907684 
	C237.207260,191.128448 230.664688,188.294373 221.945618,190.442078 
M190.374222,168.150055 
	C186.746796,165.142181 182.584976,163.754669 177.905212,164.387466 
	C171.537003,165.248550 167.445816,169.176010 165.160736,174.890762 
	C162.674332,181.108948 164.570602,186.941193 168.921356,191.346924 
	C172.744904,195.218750 177.648163,197.528275 183.738373,195.784073 
	C194.723465,192.638000 201.611572,178.970505 190.374222,168.150055 
M331.221069,196.098053 
	C333.782745,197.463287 336.163818,195.961624 338.466095,195.372589 
	C344.776855,193.757996 349.602814,186.840195 349.646179,179.956940 
	C349.689087,173.147522 344.880951,166.776733 338.167847,164.748245 
	C332.330048,162.984238 324.765472,165.889740 320.916534,170.851013 
	C313.565918,180.325897 319.781982,193.673203 331.221069,196.098053 
M151.737320,156.152145 
	C155.087738,149.469086 153.441315,143.637024 147.225922,140.171692 
	C141.822769,137.159210 135.299927,138.989380 131.771683,144.507828 
	C128.695602,149.319000 130.419800,156.281769 135.534195,159.701889 
	C141.552231,163.726257 146.781250,162.740601 151.737320,156.152145 
M363.967407,158.513474 
	C364.777893,159.089035 365.562286,159.706299 366.403198,160.233246 
	C371.154083,163.210205 376.709442,162.311584 380.698822,157.944244 
	C384.356171,153.940399 384.764282,147.734192 381.631653,143.758743 
	C377.777588,138.867737 371.989441,137.322250 367.117401,139.883347 
	C360.042175,143.602615 358.681305,150.432083 363.967407,158.513474 
M115.198700,114.140976 
	C109.364594,112.632210 106.956726,113.546051 105.060471,117.985535 
	C103.341003,122.011116 105.288902,124.705620 108.505737,126.646126 
	C112.045280,128.781281 115.263771,127.640739 117.749825,124.716789 
	C120.412605,121.584976 119.634041,117.942276 115.198700,114.140976 
M394.817841,121.149460 
	C395.590363,125.016472 397.715942,127.479774 401.855927,127.582344 
	C405.219299,127.665672 407.433777,125.846382 408.898651,122.922226 
	C410.577240,119.571426 408.909393,117.054367 406.699524,114.916283 
	C402.530060,110.882286 396.558258,113.685242 394.817841,121.149460 
z"/>
</svg>