<?xml version="1.0" encoding="utf-8"?>
<svg version="1.1"
	 id="Layer_1" xmlns:cc="http://creativecommons.org/ns#" xmlns:dc="http://purl.org/dc/elements/1.1/" xmlns:rdf="http://www.w3.org/1999/02/22-rdf-syntax-ns#"
	 xmlns="http://www.w3.org/2000/svg" xmlns:xlink="http://www.w3.org/1999/xlink" x="0px" y="0px" viewBox="0 0 3837.159 5000"
	 enable-background="new 0 0 3837.159 5000" xml:space="preserve">
<path d="M3837.002,3554.825c-3.013-66.285-60.196-173.792-136.147-255.962c-52.196-56.47-75.641-84.616-109.199-131.091
	c-114.106-158.027-226.508-276.065-224.809-274.221c-11.081-12.026-216.586-208.609-216.586-212.443
	c0-8.649-15.939-29.291-21.556-27.917c-6.454,1.58-10.848-8.972-14.256-8.972c-2.865,0-13.042-16.426-13.042-21.05
	c0-6.913-4.612-6.69-16.545-18.847c-16.247-16.553-19.281-20.491-19.281-25.027c0-5.963-3.949-9.335-12.998-11.098
	c-13.775-2.683-5.696-11.222-18.789-20.223c-8.009-5.505-12.994-14.815-10.464-19.542c1.768-3.303,1.359-14.897-0.99-28.041
	c-2.293-12.838,7.839-44.799,8.355-64.615c0.634-24.351,2.742-40.592,5.604-43.182c2.387-2.16,2.687-4.697,1.994-16.851
	c-1.267-22.215,2.196-11.605,4.506-36.228c2.83-30.173,10.174-31.912,6.763-47.494c-4.331-19.781,2.241-42.797-36.225-352.927
	c-7.692-62.028-1.653-80.906-15.472-138.42c-20.199-84.067-19.858-96.4-36.043-130.277c-41.168-86.172-22.352-58.009-52.988-114.654
	c-28.307-52.338-29.738-72.266-72.171-120.659c-25.375-28.938-37.537-48.568-44.487-71.799
	c-3.97-13.272-19.087-37.192-31.896-50.473c-8.394-8.703-16.927-25.896-29.432-59.302c-22.774-60.841-52-96.811-125.899-154.946
	c-47.557-37.413-102.263-36.257-154.114-52.5c-33.144-10.383-68.703-20.533-101.589-20.533
	c-109.48-143.869-133.104-158.385-209.545-242.727c-89.7-98.975-104.081-112.989-155.912-151.932
	c-36.674-27.555-47.025-37.3-59.109-55.649c-21.537-32.701-55.785-51.156-140.538-75.727
	c-54.154-15.701-123.717-39.714-232.22-54.552c-41.347-5.655-93.037-13.861-134.509-16.93c-61.303-4.536-99.977-28.291-95.01-58.356
	c1.875-11.347-0.456-59.161-2.618-67.986c-12.881-52.573-39.631-77.765-23.837-109.107c16.527-32.795,17.771-67.344,2.433-67.545
	c-8.509-0.112-10.774-19.684-3.512-30.342c19.055-27.967,19.475-52.745,0.895-52.745c-8.288,0-9.522-3.587-4.816-13.989
	c10.466-23.132-8.373-37.836-25.696-20.057c-4.444,4.561-12.111,11.128-17.038,14.592c-38.641,27.173-94.045,93.709-94.367,113.326
	c-0.1,6.099-6.214,26.634-7.929,26.634c-6.983,0-10.855-14.319-25.948-28.932c-12.65-12.247-10.195-7.123-11.873-22.09
	c-1.902-16.959-7.348-21.776-12.912-45.872c-6.31-27.322-14.658-38.269-29.185-38.269c-9.193,0-14.602,34.23-8.389,53.089
	c0.856,2.597,2.644,17.675,3.975,33.506c2.525,30.032,2.309,29.232,13.561,50.195c10.531,19.62,4.27,16.855,20.841,41.64
	c27.423,41.018,50.823,128.995,85.512,203.515c18.603,39.964,42.05,103.948,123.812,132.443
	c25.064,8.737,94.475,41.165,127.733,54.743c57.876,23.629,79.142,33.379,209.258,124.073
	c139.14,96.981,149.776,50.986,217.036,129.05c8.16,9.47,43.878,46.531,79.375,82.358c79.869,80.611,89.795,92.916,81.423,100.936
	c-5.613,5.377-5.89,5.31-30.971-7.437c-88.531-44.995-145.605-94.614-181.54-157.824c-43.902-77.224-94.021-97.922-144.154-59.531
	c-15.992,12.246-18.263,13.063-27.029,9.716c-9.371-3.579-16.576-2.063-23.334,4.91c-5.347,5.517-5.428,5.539-17.134,4.654
	c-21.989-1.663-23.427,2.179-52.706,32.69c-13.847-6.214-39.642-20.285-59.934,11.557c-2.514,3.946-3.236,9.213-4.017,29.312
	c-1.116,28.729-2.369,32.964-14.721,49.743c-20.767,28.211-14.743,28.498-30.876,36.675c-16.75,8.49-19.533,12.667-28.493,42.769
	c-0.455,1.529-2.704,0.983-8.374-2.036c-19.236-10.24-40.474,2.387-18.616,2.387c15.461,0,19.33,6.747,7.177,12.514
	c-3.281,1.557-10.761,7.292-16.623,12.745c-22.862,21.268-29.029,16.324-37.64,34.18c-9.629,19.97-14.907,14.001-34.112,67.581
	c-2.965,8.27-5.831,32.672-5.816,32.569c-1.578,11.148-4.513,9.316-3.094,14.971c1.358,5.409-3.125,12.871-2.759,14.649
	c0.439,2.144-6.605,3.33-7.846,1.321c-2.679-4.335-3.812,0.814-4.755,21.613c-0.264,5.814-18.26,17.921-20.465,38.64
	c-1.491,14.01-28.52,49.131-28.52,87.426c0,14.308-18.093,35.073-15.132,87.807c0.649,11.564,0.366,16.802-0.953,17.617
	c-2.722,1.683-0.49,32.237,2.483,33.995c2.985,1.764,2.796,12.443-0.281,15.842c-2.226,2.46-2.226,2.958,0,4.806
	c2.678,2.222,3.355,9.808,1.1,12.329c-2.848,3.184,3.936,73.063,5.455,182.028c-59.229,33.048-114.751,63.154-170.175,108.559
	c-112.075,91.815-135.227,65.158-248.341,138.094c-224.273,144.613-192.19,171.829-371.29,280.455
	c-42.412,25.723-124.494,87.123-165.691,130.841c-92.685,98.358-107.255,90.58-151.822,151.678
	c-8.737,11.978-19.315,22.419-28.694,38.702c-36.287,62.994-64.747,98.015-72.289,166.485
	c-3.208,29.126-17.262,92.857,1.135,105.742c18.083,12.666,37.23-14.446,43.629-61.774c1.147-8.49,4.742-18.472,9.676-26.87
	c2.883-4.905,6.69-42.34,13.163-42.34c6.481,0-8.725,36.893-0.687,52.438c3.468,6.706,17.268,52.607,37.512,71.516
	c2.286,2.135,6.177,8.327,8.648,13.761c7.492,16.473,20.776,19.761,33.34,8.253l5.886-5.391l8.003,3.961
	c18.453,9.133,21.88-5.288,32.648-8.532c10.554-3.179,22.799-27.404,22.799-45.103c0-3.51,1.117-8.542,2.482-11.182
	c4.094-7.917,5.088-33.446,10.278-42.288c3.759-6.404,10.783-25.567,12.527-34.174c1.509-7.448,3.872-11.876,10.256-19.218
	c28.388-32.649,22.661-40.479,35.926-54.905c0.176-0.191,75.384-91.121,81.556-104.183c6.594-13.956,17.965-46.937,17.965-52.107
	c0-13.129,29.958-35.532,73.274-54.8c43.658-19.417,85.555-41.358,162.848-85.282c179.72-102.131,152.263-104.87,298.823-203.532
	c57.27-38.553,54.587-41.412,80.253-52.538c13.972-6.057,26.479-17.234,36.499-25.523c18.495,0.755,29.157,2.099,64.821-8.929
	c82.005-25.356,94.451-32.198,94.451-29.256c0,0.829,1.649,0.454,3.664-0.833c5.227-3.337,17.903-6.071,19.135-7.436
	c1.215-1.347,36.476-16.354,38.427-16.354c7.105,0,10.549,38.573,5.581,62.505c-1.322,6.368-1.432,10.036-0.333,11.135
	c2.318,2.317,5.179,0.087,5.179-4.037c0-3.187,2.637-8.758,4.112,23.22c1.722,37.308,5.659,36.37,5.659,45.541
	c0,1.95,1.164,4.709,2.586,6.132c2.363,2.363,2.516,1.614,1.766-8.666c-5.252-71.993-2.904-62.08-8.338-87.383
	c-1.496-6.965,1.613-5.269,4.579,2.497c3.391,8.879,3.702,52.25,8.475,59.972c3.671,5.94,8.523,68.844,5.456,70.739
	c-0.968,0.598-1.318,2.853-0.776,5.009c1.487,5.925,0.372,46.206,2.61,46.206c0.855,0,1.563-2.382,1.579-5.292
	c0.032-6.711,2.307-10.866,3.808-6.954c1.859,4.847,5.142-2.806,3.444,6.245c-2.38,12.69,4.03,17.282,4.097,1.523
	c0.048-13.233,4.473-0.601,7.368-25.618c1.42-12.264,0.32-11.32,3.61-4.885c3.885,7.599,7.503,8.857,7.313,15.569
	c-0.106,3.73,0.459,4.793,2.195,4.127c4.007-1.538,0.805,4.442,4.292,0.956c2.528-2.528,4.548-2.493,4.605,0.082
	c0.143,6.458,13.069,9.174,12.798,38.221c-0.164,17.497,2.841,12.853-0.04,20.82c-1.658,4.592-1.655,6.082,0.016,7.726
	c1.67,1.643,1.856,1.171,0.964-2.441c-1.413-5.721,2.962-18.882,6.698,58.218c1.593,32.888-2.478,6.556-2.54,20.045
	c-0.046,9.927,3.923-2.72,2.987,12.331c-0.313,5.035-0.091,9.337,0.493,9.56c3.581,1.364,4.826,66.209,1.799,93.716
	c-1.705,15.495-2.604,28.479-1.997,28.854c1.811,1.119,4.835-7.098,4.835-13.135c0-3.093,0.55-5.623,1.221-5.623
	c1.228,0,1.34,1.098,2.237,21.984c0.649,15.106,0.66,6.234,4.046,2.848c3.172-3.172,2.927-13.912,3.379-23.204
	c0.782-16.058,3.87-45.38,2.773-55.368c-1.244-11.328,5.071-26.554,7.727-52.902c1.886-18.711,2.157-19.291,6.464-13.841
	c3.455,4.373,3.332,14.935-0.396,33.979c-3.055,15.595,2.495,2.185,0.47,23.386c-1.145,11.988-1.07,12.418,1.725,9.889
	c6.022-5.45,1.245-37.004,4.684-10.453c9.167,70.757-9.526,74.881-12.092,113.988c-0.813,12.388,5.123,4.011,7.789-10.992
	c4.272-24.041,5.471-24.531,5.548-2.272c0.047,13.477-0.753,22.716-2.465,28.498c-6.336,21.393-0.236,27.516,1.788,16.724
	c1.145-6.104,4.183-6.407,4.183-0.418c0,7.343,3.425-0.117,4.75-10.345c1.287-9.936,1.369-10.084,1.72-3.105
	c1.435,28.512,6.319,14.894,5.549-15.47c-0.341-13.435,0.05-26.625,0.869-29.312c3.609-11.841-0.453,2.505,3.547,4.978
	c1.258,0.777,1.447-1.995,0.645-9.484c-2.371-22.142,8.265-67.246,13.76-58.353c1.973,3.192,5.31-1.149,5.656-7.359
	c0.418-7.493,3.604-12.431,5.253-15.529c1.578,5.575,3.228,10.878,5.691,23.865c3.363,17.732,10.815,21.654,8.752,12.26
	c-1.503-6.843,3.17-18.201,6.284-44.015c2.68-22.215,1.568-22.507,3.396-2.536c2.683,29.318,0.059,83.203-4.691,96.369
	c-2.302,6.378-4.184,12.424-4.184,13.435c0,2.896,3.25,2.144,4.375-1.011c2.172-6.094,4.463-7.615,5.412-3.594
	c1.58,6.694,4.869,5.703,4.869-1.467c0-15.642,6.69-3.965,4.278,8.099c-1.019,5.093,2.818,11.909,4.263,7.574
	c0.86-2.58,3.076,5.265,1.078,5.265c-3.15,0-0.857,7.898,3.08-0.741c3.965-8.704-3.377-20.505,3.37-19.997
	c4.077,0.307,5.049,17.547,1.632,28.952c-2.072,6.914-0.736,15.365,2.146,13.583c1.212-0.749,1.55-0.036,0.992,2.097
	c-1.003,3.834,2.626,9.464,5.109,7.928c2.708-1.674,0.62-5.767,4.18-5.767c1.596,0,2.443,1.598,2.443,4.614
	c0,6.293,1.851,7.647,4.336,3.172c1.91-3.44,2.067-3.167,2.12,3.694c0.083,10.719,6.386,16.331,6.767,6.025
	c0.188-5.084,0.261-5.02,1.86,1.628c2.175,9.045,6.087,9.307,6.087,0.407c0-15.822,8.859,7.312,2.544-29.506
	c-9.82-57.259-2.544-45.253-2.544-61.322c0-8.14,2.846-33.498,4.23-37.686c5.107-15.458,5.28,52.593,8.104,71.321
	c1.043,6.914-1.268,18.056-4.685,22.588c-2.069,2.744,0.859,3.365,3.749-2.036c3.066-5.727,5.446-5.017,4.487,0
	c-0.551,2.883-0.063,4.071,1.671,4.071c4.411,0-0.47-14.385,1.897-22.799c1.984-7.051,5.429,16.641,3.498,24.054
	c-4.235,16.256,1.635,23.845,2.799,12.054c0.799-8.085,5.189-2.636,5.189-9.319c0-5.978,5.472-12.606,4.034-17.136
	c-1.463-4.609,0.773-14.028,2.632-11.091c1.205,1.902,1.431,1.894,1.452-0.055c0.031-2.849,2.506-2.161-0.247,3.881
	c-1.738,3.815-1.632,4.656,0.753,5.991c9.145,5.118-7.197,29.123-1.349,26.878c8.826-3.386-15.837,45.57,2.115,19.082
	c1.843-2.719,1.982-2.523,1.307,1.842c-5.022,32.466,0.635,37.325,0.677,33.791c0.049-3.972,3.931,1.88,5.505-9.606
	c1.868-13.628,3.728-3.341,5.069-28.098c1.208-22.309,3.782-19.996,3.4-28.656c-0.572-12.954,0.998,7.408,7.182-87.123
	c3.812-58.268,8.281-24.652,6.783-43.459c-0.896-11.26,2.368-12.234,3.522-1.052c1.42,13.756-2.833,7.373,0.443,20.003
	c1.808,6.97,2.103,17.354,1.386,48.842c-2.99,131.29,7.445,111.62,7.445,121.356c0,3.463,1.516,3.128,5.233-1.157
	c4.206-4.85,2.233-4.82-0.51-36.24c11.523,31.93,13.392,19.651,8.508,4.774c-4.912-14.963-2.082-12.386-6.819-30.016
	c-3.253-12.106-4.036-35.826-1.182-35.826c1.896,0,0.32-7.411,3.556-10.647c2.779-2.779,4.971,5.861,3.399,13.399
	c-1.274,6.11-1.757,5.96,1.468,0.397c4.556-7.861,11.783-49.635,10.064-19.434c-0.533,9.367-0.299,12.657,0.723,10.178
	c8.141-19.751-4.549,45.125,3.554,33.599c1.071-1.523,1.173-0.672,0.316,2.635c-2.481,9.57-2.017,21.984,0.822,21.984
	c3.659,0,5.663-30.647,9.306-32.045c3.702-1.421,1.265-16.904,4.056-33.094c1.697-9.845,1.475-15.688,1.475-20.356
	c2.877,3.653,6.113,7.129,8.756,15.47c4.53,14.299,8.555,21.791,9.995,36.64c1.831,18.891,5.556,3.428-37.491,61.882
	c-2.279,3.095-2.379,2.998-2.007-1.948c0.683-9.073-2.819-6.593-3.9,2.762c-2.705,23.408-7.922,9.404-7.922,18.631
	c0,4.585-3.201,7.477-3.367,3.042c-0.083-2.221-0.539-1.945-1.852,1.125c-11.713,27.384-7.244,12.687-19.433,32.823
	c-7.646,12.63-11.175,15.774-11.175,18.64c0,3.7,6.832,0.031,9.675-5.196c4.858-8.931,5.075-9.134,7.569-7.064
	c1.815,1.506,2.298,1.361,2.298-0.69c0-6.192,13.365-28.948,15.656-26.657c1.217,1.218-11.305,31.456-12.783,36.007
	c-2.74,8.434-10.918,12.172-8.165,9.115c2.35-2.61,2.653-4.866,0.655-4.866c-2.339,0-14.872,52.678-5.281,41.188
	c1.651-1.977,3.458-3.137,4.017-2.578c1.297,1.297,1.61-2.783-0.612-2.783c-2.082,0-2.044-2.508,0.158-10.44
	c1.149-4.138,2.212-5.652,3.034-4.322c2.139,3.462,3.24-8.037,7.308-8.037c3.35,0,3.45-3.509-0.182-2.115
	c-3.001,1.152-2.892,0.907,4.515-10.098c6.452-9.588,16.441-40.539,15.207-47.119c-2.168-11.553,10.672-26.441,10.672-21.18
	c0,3.071,3.257,2.113,3.257-3.449c0-5.925,3.987-1.786,5.485-8.454c1.399-6.226,16.452-21.268,15.212-17.913
	c-1.111,3.006,0.355,6.504,4.252-5.859c2.915-9.248,10.867-19.15,8.699-10.833c-2.287,8.774-1.893,26.055-5.384,26.055
	c-1.215,0-2.209,1.242-2.209,2.761c0,3.766-6.787,8.132-10.457,19.453c-3.98,12.275-16.289,22.718-22.82,39.045
	c-6.472,16.179-19.586,29.832-20.937,38.077c-1.248,7.61-0.411,1.628,3.082,1.628c2.671,0,21.794-28.287,21.864-32.34
	c0.071-4.129,10.238-21.925,12.982-22.724c4.316-1.256-1.628,2.183-1.628,5.219c0,1.872,4.763-3.385,4.833-8.013
	c0.075-4.754,6.529-6.817,6.643-10.49c0.105-3.422,10.113-21.526,8.919-16.332c-1.449,6.302-2.519,19.711-4.212,18.664
	c-2.787-1.722-4.767,26.747-8.963,38.639c-3.112,8.82,0.232,13.668-1.94,16.406c-2.384,3.005-5.005,14.591-6.836,13.458
	c-2.329-1.44-2.802,19.999-17.827,38.855c-9.646,12.105-1.359,7.45-8.446,14.993c-5.877,6.255,2.333,6.62-7.096,11.095
	c-13.639,6.472,2.476,7.562-3.267,13.907c-7.159,7.911-1.373,16.29,6.807,9.856c6.471-5.09,10.716-1.889,4.422,3.334
	c-5.264,4.369,3.731,4.69-10.803,24.678c-2.636,3.625-0.027,6.091,2.004,2.881c3.349-5.297,2.602,6.457-11.362,13.577
	c-4.015,2.047-4.267,5.571-0.334,4.668c1.703-0.391,2.018,0.46,1.206,3.257c-1.903,6.554-3.064,14.371-2.133,14.371
	c2.793,0,6.046-2.284,6.046-4.246c0-3.349,8.041-1.264,8.35-4.304c1.732-16.962,1.486-15.017,19.334-15.555v7.543
	c0,7.344-10.862,21.447-16.518,21.447c-0.873,0-1.195,0.634-0.717,1.409c2.083,3.37,17.234-2.197,17.234-6.332
	c0-0.875,0.668-1.408,1.485-1.184c5.813,1.593,24.57-19.086,24.57-27.088c0-4.192,8.622-1.149,9.431-6.703
	c0.767-5.267,14.415-7.813,15.927-12.582c0.504-1.589,1.661-2.889,2.571-2.889c4.256,0-14.902,26.544-14.902,23.022
	c0-1.019-0.776-1.852-1.724-1.852c-2.556,0,1.09,2.527-2.251,3.809c-3.371,1.294-3.863-4.089-4.039-0.145
	c-0.195,4.326,5.325,1.819,0.234,5.385c-4.628,3.241-4.556,4.556,0.396,7.206c7.126,3.814,7.875-4.496,9.475,1.624
	c1.068,4.082,4.463,4.305,5.494,0.361c0.857-3.276,7.071-7.869,7.071-5.225c0,4.68,4.639,0.526,8.624-7.721
	c6.685-13.838,1.158,0.785,4.518-1.292c3.498-2.163-1.708-11.183,2.451-12.779c1.394-0.535,2.32,0.119,2.32,1.637
	c0,4.714,4.063,1.228,5.58-4.789c2.225-8.827,4.367-2.527,11.317-13.489c6.711-10.586,12.416-8.69,12.416-13.656
	c0-4.677,8.142-15.499,8.142-17.703c0-1.876,4.01-9.153,4.874-10.803c0,4.172,0.394,8.275-2.707,17.006
	c-3.054,8.6-1.765,17.325,1.517,10.271c0.938-2.015,2.551-3.664,3.586-3.664c1.769,0,7.392-10.679,7.392-14.037
	c0-3.073,11.807-17.155,10.464-22.505c-1.378-5.489,5.211-18.681,8.853-17.728c5.004,1.309,0.964-3.394,10.354-23.896
	c11.729-25.608,12.237-36.8,13.687-35.35c6.483,6.483-10.485,43.525-10.751,52.056c-0.047,1.489,6.475-2.031,6.475-4.884
	c0-2.789,6.035-5.454-0.318,11.354c-2.79,7.382,1.973,5.496-3.871,16.473c-5.012,9.41-4.974,10.824,0.251,9.427
	c10.573-2.827,21.259-43.599,24.86-47.2c4.131-4.132,4.396-15.884,7.043-17.52c2.677-1.654-0.687,0.408-1.045,18.087
	c-0.145,7.165-1.199,15.806-2.341,19.202c-3.076,9.142-1.252,12.28,3.906,6.714c5.52-5.957,2.212-4.294,7.93-16.247
	c6.089-12.731,9.545-36.695,10.446-29.698c0.989,7.687-4.442,9.684-1.323,13.443c4.75,5.723-75.995,172.396-77.106,169.944
	c-0.533-1.177-0.613-0.657-0.178,1.156c0.506,2.106-6.55,17.927-19.557,43.847c-22.444,44.73-27.71,68.835-106.866,190.122
	c-60.37,92.504-86.737,138.834-167.516,230.919c-43.369,49.439-58.315,81.503-97.612,111.987
	c-80.619,62.537-146.131,122.602-185.541,170.114c-70.215,84.651-77.521,93.989-97.169,124.2
	c-43.36,66.671-69.449,152.236-143.712,271.093c-66.942,107.141-138.749,304.827-221.793,385.179
	c-62.678,60.646-62.725,60.71-79.332,108.232c-7.288,20.853-10.424,27.451-18.254,38.397
	c-14.361,20.077-18.829,34.671-33.214,50.643c-33.191,36.851-21.685,31.527-84.938,126.793
	c-62.605,94.289-39.77,74.157-70.966,105.212c-30.377,30.24-43.698,59.079-35.549,76.963c1.293,2.839,1.364,7.235,0.241,15.043
	c-4.983,34.658,14.216,19.948,14.216,41.922c0,9.484,7.098,22.229,12.379,22.229c1.424,0,4.579,1.417,7.012,3.15
	c16.168,11.513,75.501,2.541,92.158,2.762c104.351,1.383,84.236,3.908,106.787-7.234c40.115-19.82,70.517-7.018,67.749-24.077
	c-0.763-4.707-0.423-5.542,2.255-5.542c1.937,0,3.154-1.117,3.154-2.895c0-4.804,6.375-7.263,13.04-42.703
	c2.348-12.48,5.421-15.559,7.137-29.312c8.459-67.833,109.027-227.097,114.74-279.587c2.614-24.018,23.157-29.558,38.433-72.162
	c30.656-85.499,54.956-93.187,161.201-212.515c48.608-54.594,288.773-310.479,290.179-311.917
	c124.768-127.676,210.646-243.541,323.867-315.918c123.918-79.215,231.042-180.372,318.349-299.798
	c49.471-67.672,79.585-101.141,144.119-160.177c287.839-263.315,270.933-253.179,311.591-311.193
	c4.336-6.186,8.606-13.446,9.49-16.133c2.375-7.222,10.993-7.628,20.665-0.973c14.11,9.707,41.396,20.542,61.734,35.586
	c82.691,61.168,109.874,65.281,265.093,217.704c106.25,104.336,152.003,144.252,299.037,244.058
	c116.25,78.911,344.178,189.774,346.036,242.82c1.183,33.764,2.363,30.146-23.961,73.409
	c-73.318,120.498-88.516,137.41-122.594,201.115c-71.595,133.838-72.627,346.364-78.368,390.832
	c-13.566,105.049-47.24,252.357-52.295,298.823c-2.75,25.271-21.143,106.77-21.119,106.665
	c-7.233,31.762-26.841,78.127-50.47,110.616c-29.444,40.481-43.182,121.421-41.462,133.931c0.647,4.707,1.279,11.582,1.403,15.279
	c0.479,14.212,18.983,27.321,42.73,30.269c24.345,3.023,9.915,9.964,69.007,8.565c97.981-2.315,112.193-0.435,138.419-10.557
	c15.16-5.851,52.915-6.585,59.454-1.156c4.503,3.737,8.341,5.38,26.041,11.143c10.146,3.304,75.009,4.265,74.909,4.262
	c38.462,1.201,32.289,4.148,40.712,2.882c22.319-3.355,42.361-1.612,54.087-9.484c19.757-13.264,34.511,14,82.659-1.816
	c66.853-21.96,36.877-115.582,0.344-88.103c-7.728,5.813-23.315,7.276-29.092,2.731c-2.43-1.911-6.691-3.374-9.828-3.374
	c-7.803,0-10.552-4.758-14.491-4.834c-3.607-0.07-9.055-5.999-16.428-8.51c-14.226-4.846-59.72-48.843-101.152-70.667
	c-18.113-9.541-39.648-34.744-42.553-49.801c-14.416-74.72-14.052-44.634-10.806-87.386
	c8.102-106.738,60.839-262.956,100.779-360.165c77.371-188.313,77.224-197.531,115.512-274.396
	c41.742-83.8,51.902-148.241,122.588-266.254C3795.85,3716.656,3840.123,3623.47,3837.002,3554.825z M1231.352,117.985
	c-4.3,2.538-12.69,22.098-16.375,12.495c-1.118-2.913-0.923-3.212,8.69-13.314C1235.237,105.006,1235.113,115.764,1231.352,117.985z
	 M1278.039,58.979c-5.76,12.078-16.814,3.053-5.464-5.338C1280.962,47.44,1282.722,49.159,1278.039,58.979z M1238.85,1708.207
	c-5.368,4.683-10.156,6.529-10.882,4.196c-1.759-5.648-2.54-67.875-0.864-68.91
	C1233.443,1639.575,1244.937,1702.898,1238.85,1708.207z M1313.481,2133.989c2.029,2.028,1.537,13.185-0.535,8.126
	C1311.023,2137.417,1311.386,2131.894,1313.481,2133.989z M1290.057,2029.884c-5.045-14.008-1.513-10.839-4.802-12.754
	c-2.275-1.325-2.647-2.97-1.827-8.093c0.973-6.087-1.307-9.284-3.134-4.394c-0.499,1.336-1.194,0.981-2.024-1.036
	c-1.613-3.923,0.685-7.533,7.239-11.373c7.386-4.327,7.524-3.97,12.451,32.357c1.336,9.852,3.444,20.844,4.684,24.427
	c2.108,6.091,9.266,46.164-3.924,6.136C1296.133,2047.301,1292.234,2035.929,1290.057,2029.884z M1305.227,2124.742
	c-0.248-17.05-16.794-69.057-1.43-37.573c6.569,13.462,6.676,13.957,5.588,25.966
	C1308.156,2126.686,1305.369,2134.468,1305.227,2124.742z M1318.407,2192.823c-2.509,4.69-3.168,20.131-5.001,22.034
	c-3.126,3.244-4.124-4.874-4.124-33.556c0-27.53,0.224-30.035,2.258-25.241C1314.832,2163.821,1322.136,2185.856,1318.407,2192.823z
	 M1321.166,2037.834c-0.649,14.951-0.061,14.88-1.773-0.012c-1.201-10.44-0.775-14.205,1.366-12.065
	C1321.25,2026.247,1321.433,2031.682,1321.166,2037.834z M1328.01,2077.517c2.25,3.48,0.815,16.908,3.401,37.993
	c1.735,14.146,1.222,21.096-0.773,10.465C1327.291,2108.135,1325.412,2073.498,1328.01,2077.517z M1332.825,2185.425
	c-2.644-12.801-6.271-11.806-4.001-12.763c2.66-1.122-0.588-21.864,2.304-21.864c2.305,0,1.403-0.271,3.974,17.913
	c1.203,8.509,2.286,17.449,2.408,19.868C1337.93,2196.921,1334.759,2194.786,1332.825,2185.425z M1337.78,2141.244
	c0-3.866,3.74,0.777,2.999,2.999C1339.97,2146.671,1337.78,2144.481,1337.78,2141.244z M1355.966,2224.079
	c-1.829,0-6.787-11.77-6.787-16.113c0-1.661-1.141-6.226-2.536-10.145c-3.54-9.947-6.239-26.79-7.983-31.553
	c-1.23-3.36,11.971,13.084,15.488,41.391C1356.204,2224.189,1357.88,2224.079,1355.966,2224.079z M1381.267,2467.126
	c-0.943,4.896-0.943-12.225,0-7.328C1381.656,2461.813,1381.656,2465.111,1381.267,2467.126z M1401.45,2159.398
	c1.896,3.258,1.372,10.564-0.614,5.515C1398.888,2159.961,1399.352,2155.793,1401.45,2159.398z M1397.434,2166.865
	c5.242,12.013-2.846,4.625-2.525-2.525C1394.993,2162.475,1395.926,2163.408,1397.434,2166.865z M1400.782,2211.683
	c-1.623-2.176-3.638-3.531-4.478-3.012c-1.96,1.212-1.312-1.47-3.014-10.275C1387.967,2170.872,1414.129,2229.573,1400.782,2211.683
	z M1404.265,2244.399c-0.705,5.8,0.207,5.638-3.382-0.488C1392.128,2228.967,1405.262,2236.194,1404.265,2244.399z
	 M1404.126,2360.807c-11.648-1.834-12.599-70.507-9.196-69.125c7.542,3.063,8.785,8.395,9.196,39.467
	C1404.343,2347.495,1404.343,2360.841,1404.126,2360.807z M1404.542,2284.643c0.004,9.93-1.872,10.811-7.068,3.313
	c-4.27-6.162-6.909-49.279-2.754-45.001c4.896,5.04,9.434,23.464,5.78,23.464
	C1395.827,2266.419,1404.536,2271.719,1404.542,2284.643z M1414.389,2429.265c-3.155-84.11-2.836-107.479,1.466-107.479
	C1418.906,2321.786,1416.188,2477.241,1414.389,2429.265z M1425.21,2445.142c-0.995,3.81-0.995-9.509,0-5.7
	C1425.62,2441.01,1425.62,2443.575,1425.21,2445.142z M1438.475,2220.44c2.415-2.415,4.617,3.006,5.943,14.631
	c1.076,9.432,0.926,10.178-2.046,10.178C1438.709,2245.249,1435.309,2223.606,1438.475,2220.44z M1442.844,2287.895
	c3.53,19.845,5.913,14.189,8.928,36.401c2.78,20.475,1.964,22.043-5.214,10.025c-10.526-17.621-11.573-21.334-12.358-43.84
	C1433.097,2258.867,1437.449,2257.564,1442.844,2287.895z M1444.054,2341.8c-2.448-5.223-1.446-7.052,1.178-2.15
	C1447.741,2344.338,1446.726,2347.501,1444.054,2341.8z M1431.245,2376.306c-3.167-4.833-2.546-40.241,0.764-43.55
	c3.031-3.031,0.355,2.046,4.134,5.183c4.472,3.712,10.041,41.206,10.972,46.977c-17.265,34.062-17.834,37.214-17.979,17.556
	C1428.944,2376.537,1436.676,2384.594,1431.245,2376.306z M1443.222,2422.479c-1.821,0.809-0.554,8.414-2.669,8.414
	c-2.111,0-2.248,9.03-6.603,14.249c-4.708,5.643-5.341,4.544-4.207-7.297c0.763-7.963,2.252-12.777,5.447-17.599
	c11.741-17.726,13.466-29.029,15.75-15.512C1451.963,2410.791,1447.757,2420.464,1443.222,2422.479z M1450.144,2378.267
	c0-3.556-3.943-20.309-5.115-21.731c-0.997-1.21-0.97-2.254,0.073-2.898c2.356-1.456,8.266,12.434,11.036,11.397
	c2.526-0.946,1.415,4.81-1.907,9.88C1452.01,2378.304,1450.144,2379.835,1450.144,2378.267z M1454.623,2399.918
	c-2.952,0.081-1.092-13.497,2.443-17.833c2.015-2.472,4.449-5.831,5.407-7.464c4.425-7.536,3.296,2.794-1.49,13.63
	C1458.157,2394.65,1455.295,2399.9,1454.623,2399.918z M1463.625,2428.842c-0.748,0.248-1.072,3.375-0.731,6.95
	c1.304,13.675-1.805,7.825-4.083-7.681c-1.957-13.321,7.485-46.361,11.426-39.984
	C1472.282,2391.438,1466.356,2427.931,1463.625,2428.842z M1471.246,2364.253c-3.283,6.134-5.718,4.08-3.155-2.66
	c1.562-4.108,1.415-4.326-2.425-3.592c-7.981,1.526,0.523-4.682-4.569-18.733c-3.911-10.793-9.007-56.064-13.528-73.664
	c-2.032-7.91,0.994,1.62,4.165,4.071c1.509,1.166,6.335,20.267,8.024,31.755C1462.129,2317.565,1474.664,2357.867,1471.246,2364.253
	z M1501.804,2310.922c2.22,1.372,3.708,9.043,1.861,10.184c-1.809,1.118-1.041-1.846-2.503-7.311
	C1500.488,2311.276,1500.717,2310.25,1501.804,2310.922z M1497.171,2369.826c-2.413-3.882-1.214-50.43,2.748-29.314
	C1501.134,2346.986,1498.754,2372.372,1497.171,2369.826z M1501.439,2469.976c-2.76,0-3.689-21.836-0.999-23.498
	C1504.045,2444.249,1505.659,2469.976,1501.439,2469.976z M1505.104,2431.303c-3.825-13.502-5.069-40.597-2.149-46.822
	c2.6-5.544,2.367-6.792,3.218,17.226c0.776,21.9,4.24,19.373,4.199,28.671C1510.325,2441.046,1507.981,2441.458,1505.104,2431.303z
	 M1509.697,2521.854c-2.328,2.328-2.558,1.974-2.535-3.896C1507.238,2498.082,1514.922,2516.628,1509.697,2521.854z
	 M1520.295,2490.332c-1.469-3.129-1.534-3.113-1.644,0.407c-0.408,13.057-3.258,0.617-3.179-13.877
	c0.052-9.648-0.422-20.297-1.054-23.665c-1.277-6.807,2.095-32.075,4.281-32.075
	C1519.878,2421.122,1522.567,2495.17,1520.295,2490.332z M1569.021,2442.292c-2.151,0-2.152-6.514,0-6.514
	C1571.172,2435.778,1571.173,2442.292,1569.021,2442.292z M1575.139,2420.058c-1.786,22.732-2.331,12.734-5.528-5.043
	c-1.859-10.338,5.893-0.581,3.518-9.771c-3.28-12.69-2.746-45.739,0.705-43.607
	C1575.997,2362.975,1576.8,2398.921,1575.139,2420.058z M1622.758,2510.688c-1.944,0-1.944-4.431,0-8.957
	C1625.014,2496.481,1624.748,2510.688,1622.758,2510.688z M1634.165,2476.897c-0.169,27.983-1.711,36.422-2.307,12.621
	c-0.091-3.635-0.88-5.552-2.178-5.292c-2.965,0.593-1.234-6.107-3.664-6.107c-2.16,0-0.942-9.459-3.337-24.223
	c-1.797-11.078-1.07-14.554,1.711-8.176c1.735,3.978,1.388-5.363-1.047-28.208c-0.967-9.077-0.898-9.292,2.785-8.582
	C1635.123,2410.663,1634.591,2406.162,1634.165,2476.897z M1630.864,2389.261c-2.325-6.114-0.842-7.038-4.031-8.262
	c-1.343-0.516-2.443-2.438-2.443-4.272c0-3.286,0.05-3.29,3.424-0.237c3.997,3.617,7.975,10.813,7.975,14.424
	C1635.789,2394.916,1632.607,2393.847,1630.864,2389.261z M1642.153,2439.85c1.406-12.913,0.637-12.021,2.297-3.257
	C1647.102,2450.591,1635.308,2502.746,1642.153,2439.85z M1654.328,2513.052c-3.822,34.054-4.713-0.206-0.791-6.62
	C1655.025,2503.998,1655.19,2505.375,1654.328,2513.052z M1638.59,2743.151c-1.657,2.141-8.123,4.321-1.734-2.85
	C1642.447,2734.027,1643.857,2736.345,1638.59,2743.151z M1667.331,2684.828c-3.717,14.508-8.659,16.152-2.116,2.548
	C1666.938,2683.793,1667.89,2682.647,1667.331,2684.828z M1680.649,2734.698c-5.839,7.815,2.362-10.363,2.362-4.574
	C1683.011,2730.9,1681.948,2732.959,1680.649,2734.698z M1677.547,2479.241c-1.165,1.165-2.538-7.129-3.609-10.571
	c-0.742-2.385,1.871-2.282,3.404,4.698C1677.945,2476.109,1678.037,2478.752,1677.547,2479.241z M1682.997,2500.507
	c-5.392-18.755,0.381-19.896,4.133,2.318C1688.68,2511.997,1685.844,2510.407,1682.997,2500.507z M1755.776,2515.166
	c1.527,4.307,5.984,7.614,5.148,10.122c-0.85,2.549-9.518-8.426-9.518-12.05C1751.406,2511.049,1754.856,2512.572,1755.776,2515.166
	z M1753.164,2480.851c2.029,2.028,1.537,13.185-0.535,8.126C1750.706,2484.279,1751.069,2478.756,1753.164,2480.851z
	 M1746.685,2448.317c2.536,2.535,1.699,8.592,1.518,18.81c-0.175,9.391-0.98,11.455-2.71,6.947
	C1743.213,2468.133,1744.243,2445.875,1746.685,2448.317z M1733.479,2531.085c5.644-17.1,5.77,12.88,2.038,19.549
	C1732.883,2555.342,1731.104,2538.281,1733.479,2531.085z M1692.782,2758.214c2.712-4.198,1.633,5.616,0,8.142
	C1690.07,2770.554,1691.149,2760.741,1692.782,2758.214z M1726.734,2785.901c-1.717,4.927-4.64,8.111-4.64,5.055
	C1722.094,2785.299,1730.554,2774.945,1726.734,2785.901z M1735.047,2684.119c-0.759,1.791-1.746,6.188-2.195,9.771
	c-1.079,8.619-15.452,49.71-18.43,52.687c-3.581,3.58,0.636,12.336-1.872,8.573c-2.429-3.645-1.6,2.521-6.965,9.391
	c-4.291,5.495-2.327,9.958-4.585,9.958c-1.958,0-7.166,10.779-6.067,12.557c0.449,0.727-0.31,2.779-1.686,4.56
	c-5.153,6.672,0.809-3.109-2.248-4.998c-1.567-0.969-2.174-20.45,0.153-11.305c0.684,2.687,1.33,3.969,1.436,2.85
	c0.01-0.102,32.116-166.257,32.145-166.358c0.798-2.77,0.576-3.576-0.754-2.754c-2.338,1.445-2.534-5.274-0.256-8.798
	c2.917-4.513,0.332,6.514,3.07,6.514c8.652,0,9.725,42.206,13.19,46.381C1741.687,2655.202,1738.304,2676.428,1735.047,2684.119z
	 M1742.81,2641.407c-0.824,6.623-1.404,5.568-1.833-3.336C1740.488,2627.908,1743.616,2634.933,1742.81,2641.407z
	 M1752.115,2602.289c-1.877,12.81-4.058,9.971-11.299-14.709c-3.754-12.793-4.263-16.796-3.313-26.055
	c3.544-34.565,6.276-13.026,12.537,5.345C1753.446,2576.858,1754.13,2588.537,1752.115,2602.289z M1760.532,2552.117
	c-1.156,4.607-4.241,5.704-4.241,1.508c0-1.463-2.565-7.693-5.7-13.844c-10.25-20.112-3.561-20.742-1.792-13.695
	c1.173,4.675,3.405,9.825,4.755,13.1C1757.848,2519.384,1762.768,2543.208,1760.532,2552.117z M1764.811,2496.312
	c1.26,0-3.416,25.754-3.583,13.048c-0.118-8.995-3.733-2.294-1.832-21.517C1760.939,2472.234,1764.928,2478.473,1764.811,2496.312z
	 M1763.821,2462.58c-1.488-3.879-2.51-20.368-4.517-22.927c-0.792-1.01-0.822-3.472-0.067-5.514
	c1.329-3.593,1.419-3.558,3.467,1.389c3.059,7.385-0.231,4.737,1.979,18.832C1766.168,2463.833,1765.767,2467.652,1763.821,2462.58z
	 M1838.355,2657.93c-1.54,4.013-4.254,3.032-3.009-1.088C1837.986,2648.101,1841.187,2650.549,1838.355,2657.93z M1864.399,2667.02
	c-1.393,8.174-6.649,13.149-1.333,0C1866.139,2659.42,1865.694,2659.422,1864.399,2667.02z M1976.138,2267.232
	c2.272,1.404,1.714,33.465,0,37.455C1974.228,2309.134,1973.88,2265.836,1976.138,2267.232z M1975.033,2428.25
	c1.158-85.782,0.027-77.784,3.478-72.859c1.72,2.456,2.587,10.063,3.149,27.639
	C1982.958,2423.595,1987.496,2413.467,1975.033,2428.25z M2063.328,1760.074c2.662,4.307-5.767,1.717-5.767-0.228
	C2057.561,1757.766,2062.01,1757.941,2063.328,1760.074z M2049.419,1755.894c2.265-1.4,2.077,13.373,0,14.656
	C2047.154,1771.95,2047.342,1757.177,2049.419,1755.894z M2050.144,1880.472c-5.603-20.144-6.971-34.618-3.133-33.145
	c2.69,1.032,2.822,0.189,1.774-11.368c-1.589-17.54,1.952-12.464,1.274-9.633c-1.192,4.972,1.83,7.964,5.24,5.188
	c2.573-2.094,2.755-2.027,1.752,0.645c-1.496,3.988-0.508,4.345-3.562,4.345c-5.271,0-0.469,7.323,1.407,2.433
	c11.024-28.727,27.915,133.764,1.843,188.097c-4.948,10.312-7.647,15-10.181,19.574c-6.755-10.31-6.645-7.786-3.18-22.831
	c3.952-17.162,7.378-34.242,8.801-37.455C2056.316,1976.978,2060.156,1916.466,2050.144,1880.472z M2084.256,2030.972
	c-1.337,3.485-5.519,3.279-5.55-0.274c-0.014-1.609-0.546-2.141-1.221-1.221c-1.379,1.877-11.781,2.699-11.781,0.931
	c0-1.663,7.226-8.253,9.062-8.27c0.838-0.006,2.799-2.252,4.358-4.991C2083.784,2008.958,2088.17,2020.772,2084.256,2030.972z
	 M2061.632,2051.49c-3.982,0.026-6.539,1.625-7.77,4.856c-0.637,1.672-0.971,1.326-1.059-1.096
	c-0.177-4.866,8.014-14.56,9.833-11.638c1.081,1.736,1.97,1.758,4.623,0.114c12.353-7.655,5.037,3.853,9.104,23.289
	c1.302,6.223,2.367,11.498,2.367,11.722c0,1.781-5.475-0.243-7.706-2.849c-4.428-5.171-1.389,1.94-17.033-15.105
	C2063.278,2052.846,2065.321,2051.466,2061.632,2051.49z M2078.497,2002.744c-2.121,7.078-7.297,11.422-10.951,14.923l4.632-14.402
	C2078.367,1984.018,2084.253,1983.533,2078.497,2002.744z M2042.79,1777.375c-0.291,15.774-6.07,13.153-3.805,1.081
	C2040.444,1770.684,2042.927,1769.978,2042.79,1777.375z M2037.79,2015.635c0,3.001-2.799,10.037-2.799,6.514
	C2034.991,2019.148,2037.79,2012.111,2037.79,2015.635z M2036.912,1961.895c0-14.246,1.532-1.764,0.657,5.292
	C2037.208,1970.099,2036.912,1967.717,2036.912,1961.895z M2038.089,2049.262c1.939,1.951,3.481,36.056,1.939,42.789
	c-1.621,7.077-3.672,7.727-8.423,2.67c-4.621-4.919-4.354-11.061,1.456-33.495
	C2036.293,2048.744,2036.675,2047.836,2038.089,2049.262z M2038.567,1922.812c0-16.457,1.488-2.014,0.639,6.107
	C2038.854,1932.277,2038.567,1929.529,2038.567,1922.812z M2023.268,1772.12c0.843,0.521,1.759-2.167,2.036-5.974
	c0.495-6.813,0.615-6.94,7.728-8.146c8.484-1.439,9.357-0.94,6.983,3.986c-2.482,5.147-0.429-0.391-5.251-0.391
	c-3.555,0-5.032,14.995-1.682,17.066c2.327,1.438-1.212,11.591,1.021,10.214c2.842-1.754,1.78,41.513-4.833,5.682
	c-3.04-16.474-4.19-6.771-6.15-13.731C2021.497,1775.065,2021.565,1771.067,2023.268,1772.12z M2009.72,1846.47
	c1.404-11.837,2.209-13.067,4.701-7.186c1.938,4.574,1.861,5.946-0.616,11.041C2010.219,1857.696,2008.572,1856.142,2009.72,1846.47
	z M2015.221,1862.367c0,4.355-3.257,6.291-3.257,2.013C2011.964,1860.025,2015.221,1858.088,2015.221,1862.367z M2017.667,1889.851
	c1.83,1.66-1.04-3.148,0.936-6.27c2.928-4.625-0.926,4.564,5.546-2.418c6.141-6.627,6.232-5.388,5.092,69.597
	c-1.702,111.881-3.865,56.751-12.325,63.829c-3.494,2.923-7.747,1.564-8.46-2.704
	C2003.237,1980.667,2010.578,1883.422,2017.667,1889.851z M2017.819,2059.392c2.043,12.778-5.855,7.501-5.855-1.798
	c0-2.119-0.916-4.769-2.036-5.888c-2.127-2.127-3.278-27.928-1.245-27.928c6.219,0,16.013,10.339,15.115,15.955
	c-1.605,10.038-3.151,14.193-5.118,13.758C2017.39,2053.205,2017.122,2055.039,2017.819,2059.392z M1993.569,2297.789
	c-0.942,4.881-0.886-14.156,0.022-8.142C1993.966,2292.122,1993.956,2295.786,1993.569,2297.789z M2005.518,2369.678
	c-9.606,21.087-4.067,43.631-9.974,37.74c-1.7-1.696,4.167-46.646,3.707-77.811
	C1998.42,2273.104,2014.557,2349.837,2005.518,2369.678z M2025.623,2300.209c-1.16-3.797-4.596-3.777-3.133,0
	c0.607,1.568,1.503,6.186,1.991,10.263c0.729,6.095,0.021,9.128-3.984,17.047c-6.133,12.129-4.548,11.738-5.861,3.171
	c-1.92-12.529-3.397-35.346-6.763-47.987c-3.236-12.153-1.786-21.51-4.194-23.917c-2.64-2.64,1.77-4.254,1.77-2.234
	c0,0.948,1.133,1.725,2.516,1.725c1.969,0,2.337-1.329,1.692-6.107c-1.092-8.085,0.164-1.106,3.178,3.596
	c2.917,4.551,11.79,32.776,12.819,40.78C2026.117,2300.127,2026.102,2301.776,2025.623,2300.209z M2346.798,1993.141
	c-5.328,2.792-16.455,17.775-19.901,26.798c-1.49,3.902-3.274,7.095-3.964,7.095c-1.839,0-2.575,15.637-5.573,20.38
	c-5.004,7.914,1.632,5.402-16.266,32.545c-37.087,56.243-59.352,98.886-80.474,98.327c-8.747-0.231-13.122,4.826-29.981,5.947
	c-28.848,1.919-22.434,8.904-31.415,8.904c-5.26,0-0.982,2.302-12.911,5.77c-13.256,3.854-4.199,3.078-16.692,9.179
	c-11.103,5.423-14.37,10.663-18.907,12.105c-8.469,2.692-23.917,22.292-28.067,20.7c-3.181-1.22,0.582,0.909-10.022,12.105
	c-33.275,35.133-28.326,37.866-36.784,45.767c-5.36,5.007-3.837,5.477-5.199-2.443c-9.401-54.682-24.841-44.115-23.675-89.341
	c0.426-16.53,4.592-13.863,5.088,3.257c0.298,10.29,1.834,15.84,4.643,16.776c3.556,1.185,1.542-26.3-2.601-35.504
	c-6.412-14.246-7.016-16.539-6.992-26.539c0.044-17.796,5.96-16.191,10.787,2.927c6.286,24.903,13.986,36.302,7.833,33.94
	c-1.976-0.758-2.326-0.127-1.608,2.901c1.6,6.746,0.951,35.533,7.477,31.5c2.007-1.24-1.244-19.983,1.252-28.986
	c2.621-9.457-1.287-12.782-6.244-35.285c-2.8-12.712-10.662-22.478-10.039-26.055c0.352-2.023,0.163-2.055-1.096-0.187
	c-1.223,1.813-1.898,1.552-3.441-1.331c-3.405-6.362,3.198-7.498,3.198-14.685c0-4.092,11.188-45.245,11.35-33.042
	c0.063,4.691,4.699,7.241,8.944,11.256c12.434,11.762,11.284-25.17,11.284-43.044c9.289,11.615,11.175,14.813,20.996,17.574
	c4.982,1.401,6.351,2.671,7.142,6.629c0.579,2.894,1.783,4.588,2.945,4.142c2.282-0.875,2.431,14.759,0.211,22.153
	c-3.656,12.178,12.493-0.306,3.456-39.49c-4.32-18.732-1.645-32.252,7.576-38.294c9.849-6.453-7.043-51.442-4.895-57.037
	c0.979-2.549-1.009-8.697-1.735-11.333c-6.299,27.817-7.01-1.286-4.559-20.575c1.674-13.172-4.265-64.703-4.444-82.349
	c-0.149-14.747-1.857-11.436-6.262-28.898c-1.593-6.315-2.954-10.396-3.026-9.069c-0.28,5.189-8.272-9.739-8.272-15.451
	c0-13.186-6.849,6.717,0.021-15.199c1.78-5.678,3.236-13.409,3.236-17.181c0-6.982,2.986-15.615,5.409-15.637
	c2.518-0.024-1.691,8.463,3.334,9.477c3.567,0.72,1.527,0.067,2.863-12.013c92.253,31.13,92.609,28.378,92.609,85.575
	c0.052,9.85,4.384,29.233,4.912,21.984c0.131-1.791,0.607-2.341,1.059-1.221c1.751,4.339,3.807,1.716,3.832-4.885
	c0.037-10.409,3.061-2.261,2.059-0.64c-1.355,2.192,2.233-1.124,3.21,0.629c0.847,1.518-0.384-2.593-2.129-10.168
	c-14.544-63.152-14.298-60.229-4.793-56.796c3.135,1.132,4.417,2.1,2.85,2.15c-2.94,0.095-4.127,3.349-1.221,3.349
	c0.896,0,1.645,0.916,1.665,2.036c0.054,3.02,12.911,19.943,1.589-1.859h44.785c14.019,16.099,19.4,24.252,34.904,24.252
	c11.662,0-4.603,4.49,6.362,28.498c11.755,25.737,12.117,32.181,18.034,38.042c7.339,7.27,17.969,21.701,25.262,26.209
	c5.186,3.205,5.225,3.329,5.413,17.055C2311.852,1984.354,2363.682,1984.294,2346.798,1993.141z"/>
</svg>
